# xmcd CD database file
#
# Track frame offsets:
#	150
#	18105
#	30565
#	44147
#	57832
#	69332
#	81627
#	91497
#	104615
#	116342
#	129310
#	140517
#	151695
#	165885
#	177852
#
# Disc length: 2535 seconds
#
# Revision: 0
# Processed by: cddbd v1.5.2PL0 Copyright (c) Steve Scherf et al.
# Submitted via: CDex 1.51
#
DISCID=bc09e50f
DTITLE=Reader's Digest Country - An All Star Treasury cd 2
DYEAR=1900
DGENRE=Country
TTITLE0=Crazy_Willie Nelson
TTITLE1=Half A Man_Willie Nelson
TTITLE2=Undo The Right_Willie Nelson
TTITLE3=A Moment Isn't Very Long_Willie Nelson
TTITLE4=Just Out To Reach with Patsy Cline_Willie Nelson
TTITLE5=Okie From Muskogee_Merle Haggard
TTITLE6=Mama Tried_Merle Haggard
TTITLE7=The Way I Am_Merle Haggard
TTITLE8=Carolyn_Merle Haggard
TTITLE9=Sing me Back_Merle Haggard
TTITLE10=Hello Darlin'_Conwat Twitty
TTITLE11=It's Only Make Believe_Conwat Twitty
TTITLE12=You've Never Been This Far Before_Conwat Twitty
TTITLE13=She Needs Someone To Hold Her_Conwat Twitty
TTITLE14=This Time I've Hurt Her More Than She Loves Me_Conwat Twitty
EXTD=
EXTT0=
EXTT1=
EXTT2=
EXTT3=
EXTT4=
EXTT5=
EXTT6=
EXTT7=
EXTT8=
EXTT9=
EXTT10=
EXTT11=
EXTT12=
EXTT13=
EXTT14=
PLAYORDER=
